<?xml version="1.0" standalone="no"?>
<!DOCTYPE svg PUBLIC "-//W3C//DTD SVG 20010904//EN"
 "http://www.w3.org/TR/2001/REC-SVG-20010904/DTD/svg10.dtd">
<svg version="1.0" xmlns="http://www.w3.org/2000/svg"
 width="419.000000pt" height="419.000000pt" viewBox="0 0 419.000000 419.000000"
 preserveAspectRatio="xMidYMid meet">
<metadata>
Created by potrace 1.11, written by Peter Selinger 2001-2013
</metadata>
<g transform="translate(0.000000,419.000000) scale(0.100000,-0.100000)"
fill="#000000" stroke="none">
<path d="M1375 3218 c-314 -34 -597 -260 -698 -558 -14 -41 -28 -91 -32 -110
-11 -62 -15 -235 -6 -282 l8 -46 -46 -13 c-25 -6 -73 -25 -106 -41 -358 -175
-470 -628 -232 -944 92 -122 217 -205 363 -241 63 -15 186 -17 1459 -17 1283
0 1396 1 1466 17 342 78 556 432 468 775 -71 279 -335 480 -621 475 l-48 -1
-1 47 c0 78 -10 133 -36 211 -34 103 -80 183 -153 262 -243 266 -642 309 -944
103 -21 -14 -39 -25 -40 -23 -83 127 -204 237 -331 300 -148 75 -306 103 -470
86z m220 -143 c222 -38 420 -199 522 -422 l25 -54 60 61 c75 77 162 134 247
162 75 24 230 33 298 18 271 -62 465 -295 464 -560 0 -47 -4 -106 -9 -132 -9
-47 -9 -48 17 -48 294 -3 350 -14 458 -85 365 -242 269 -787 -157 -900 -84
-22 -2765 -22 -2859 0 -231 55 -396 270 -386 504 5 127 53 237 142 327 90 90
197 140 331 151 60 5 72 9 67 22 -31 102 -46 187 -46 266 0 50 2 97 4 105 2 8
7 31 11 50 42 193 179 372 356 464 65 34 178 72 235 78 44 5 174 1 220 -7z"/>
</g>
</svg>
